<svg xmlns="http://www.w3.org/2000/svg" viewBox="0 0 480 320" role="img" aria-label="Castle Path">
  <defs>
    <linearGradient id="sky" x1="0" y1="0" x2="0" y2="1">
      <stop offset="0%" stop-color="#5C6BC0"/>
      <stop offset="40%" stop-color="#42A5F5"/>
      <stop offset="100%" stop-color="#FFE082"/>
    </linearGradient>
  </defs>
  <rect width="480" height="320" fill="url(#sky)"/>
  <circle cx="70" cy="54" r="28" fill="#FFF59D"/>
  <rect y="210" width="480" height="110" fill="#7CB342"/>
  <path d="M0 250 Q140 200 280 240 T480 210 L480 320 L0 320 Z" fill="#9CCC65"/>
  <g transform="translate(150 70)">
    <rect x="40" y="70" width="140" height="110" fill="#B0BEC5"/>
    <rect x="20" y="40" width="44" height="140" fill="#90A4AE"/>
    <rect x="156" y="40" width="44" height="140" fill="#90A4AE"/>
    <rect x="80" y="20" width="50" height="160" fill="#78909C"/>
    <polygon points="42,40 0,40 42,8" fill="#EF5350"/>
    <polygon points="178,40 220,40 178,8" fill="#EC407A"/>
    <polygon points="105,20 80,20 105,-16" fill="#FFCA28"/>
    <rect x="28" y="48" width="28" height="12" fill="#CFD8DC"/>
    <rect x="164" y="48" width="28" height="12" fill="#CFD8DC"/>
    <rect x="88" y="28" width="34" height="12" fill="#B0BEC5"/>
    <rect x="96" y="120" width="28" height="60" rx="14" fill="#5D4037"/>
    <rect x="50" y="90" width="22" height="22" fill="#4FC3F7"/>
    <rect x="148" y="90" width="22" height="22" fill="#4FC3F7"/>
    <path d="M100 8 L100 -8" stroke="#6D4C41" stroke-width="3"/>
    <rect x="100" y="-20" width="22" height="14" fill="#1E88E5"/>
  </g>
  <path d="M0 300 Q120 260 220 280 T480 270" fill="none" stroke="#BCAAA4" stroke-width="16"/>
  <path d="M0 300 Q120 260 220 280 T480 270" fill="none" stroke="#EFEBE9" stroke-width="6"/>
</svg>
